C:UsersJoelContactsIron Man - Armored Adventures 1x11 - Juando Al Escondite [SatRip + Latino + AC3].mkv
   General
      Complete name : C:UsersJoelContactsIron Man - Armored Adventures 1x11 - Juando Al Escondite [SatRip + Latino + AC3].mkv
      Format : Matroska
      File size : 276 MiB
      Duration : 22mn 14s
      Overall bit rate : 1 737 Kbps
      Encoded date : UTC 2010-05-24 23:01:06
      Writing application : VirtualDubMod 1.5.10.2 (build 2540/release)
      Writing library : libebml-0.7.5 & libmatroska-0.7.7
   Video #1
      ID : 1
      Format : MPEG-4 Visual
      Format profile : Simple@L1
      Format settings, BVOP : No
      Format settings, QPel : No
      Format settings, GMC : No warppoints
      Format settings, Matrix : Default (H.263)
      Codec ID : DX50
      Codec ID/Hint : DivX 5
      Duration : 22mn 12s
      Bit rate : 1 255 Kbps
      Width : 720 pixels
      Height : 480 pixels
      Display aspect ratio : 1.510
      Frame rate : 29.970 fps
      Standard : NTSC
      Resolution : 24 bits
      Colorimetry : 4:2:0
      Scan type : Progressive
      Bits/(Pixel*Frame) : 0.121
      Stream size : 199 MiB (72%)
      Writing library : DigiArty AV Encoder Core
   Audio #2
      ID : 2
      Format : AC-3
      Format/Info : Audio Coding 3
      Codec ID : A_AC3
      Duration : 22mn 14s
      Bit rate mode : Constant
      Bit rate : 448 Kbps
      Channel(s) : 2 channels
      Channel positions : L R
      Sampling rate : 48.0 KHz
      Stream size : 71.2 MiB (26%)